<svg width="54" height="54" viewBox="0 0 54 54" fill="none" xmlns="http://www.w3.org/2000/svg">
<path d="M27 3.375C22.3274 3.375 17.7598 4.76058 13.8747 7.35653C9.98955 9.95248 6.96148 13.6422 5.17336 17.9591C3.38524 22.276 2.91738 27.0262 3.82896 31.609C4.74053 36.1918 6.9906 40.4014 10.2946 43.7054C13.5986 47.0094 17.8082 49.2595 22.391 50.1711C26.9738 51.0826 31.724 50.6148 36.0409 48.8267C40.3578 47.0385 44.0475 44.0105 46.6435 40.1253C49.2394 36.2402 50.625 31.6726 50.625 27C50.625 20.7343 48.136 14.7252 43.7054 10.2946C39.2749 5.86406 33.2658 3.375 27 3.375ZM22.7644 7.20563C23.0344 7.72875 23.3044 8.21813 23.5913 8.72438C24.8738 11.0194 26.0044 12.9938 25.2788 15.6431C24.9919 16.7906 23.5913 17.3306 21.6675 18.0056C20.2875 18.3316 19.0325 19.0529 18.0563 20.0813C17.3955 21.0625 16.984 22.1902 16.8576 23.3664C16.7311 24.5426 16.8935 25.732 17.3306 26.8313C17.6513 28.08 17.8369 28.8563 17.4994 29.3625C17.1619 29.8688 17.2463 29.6663 16.3519 29.7844C15.3458 29.8475 14.3672 30.1385 13.4901 30.6355C12.6131 31.1325 11.8605 31.8225 11.2894 32.6531C10.3157 34.0662 9.77071 35.7303 9.72001 37.4456C7.78542 34.3044 6.75751 30.6892 6.75001 27C6.75177 22.3663 8.34261 17.8734 11.2571 14.2711C14.1715 10.6687 18.2332 8.17483 22.7644 7.20563ZM13.3481 41.9175C13.0781 40.0106 12.6563 36.5681 14.0063 34.7625C14.3143 34.2824 14.739 33.8882 15.2406 33.6167C15.7423 33.3452 16.3046 33.2053 16.875 33.21C17.5455 33.1694 18.1978 32.9766 18.7826 32.6462C19.3674 32.3158 19.8693 31.8565 20.25 31.3031C20.6804 30.5028 20.9279 29.6169 20.9746 28.7094C21.0213 27.8019 20.866 26.8953 20.52 26.055C20.0813 24.3675 19.845 23.2369 20.6888 22.1063C21.3316 21.7051 22.0314 21.4036 22.7644 21.2119C24.9075 20.4862 27.8269 19.5244 28.5694 16.4194C29.5144 12.4875 27.8944 9.66937 26.46 7.05375L26.3756 6.75H27C30.8195 6.75127 34.5597 7.83996 37.7831 9.88875C36.0085 12.6355 33.8746 15.1326 31.4381 17.3138C29.1094 19.4231 30.8138 21.8531 31.9444 23.4563C32.5612 24.1174 33.0388 24.8958 33.349 25.7452C33.6592 26.5945 33.7956 27.4976 33.75 28.4006C33.6283 28.8711 33.6295 29.365 33.7536 29.8348C33.8777 30.3047 34.1206 30.7348 34.4588 31.0838C34.9701 31.4287 35.5615 31.6363 36.1762 31.6865C36.7909 31.7368 37.4082 31.628 37.9688 31.3706C38.3725 31.2557 38.7843 31.1711 39.2006 31.1175C39.3863 31.7588 39.0319 32.2819 37.5131 33.6825C35.9944 35.0831 33.9863 36.9731 34.5938 39.9938C34.809 40.8625 35.2061 41.6756 35.7588 42.3796C36.3115 43.0835 37.0072 43.6622 37.8 44.0775C34.0574 46.4667 29.6294 47.5505 25.2064 47.1598C20.7834 46.769 16.614 44.9258 13.3481 41.9175ZM40.6856 41.9175L40.0275 41.4956C38.8463 40.7869 38.1206 40.2806 37.935 39.3525C37.7494 38.4244 38.3569 37.5806 39.8588 36.18C41.3606 34.7794 43.4531 32.805 42.3394 29.8181C41.31 27.1013 38.475 27.7931 37.1925 28.1306C37.1526 25.7158 36.2759 23.3897 34.7119 21.5494C34.2893 21.0425 33.9478 20.4732 33.6994 19.8619C36.2875 17.5446 38.5572 14.8947 40.4494 11.9813C42.5593 13.8579 44.2515 16.1567 45.4166 18.7288C46.5816 21.301 47.1935 24.0891 47.2126 26.9128C47.2317 29.7364 46.6576 32.5326 45.5274 35.1203C44.3972 37.7079 42.7362 40.0294 40.6519 41.9344L40.6856 41.9175Z" fill="#E53FB6"/>
</svg>
